/* XPM */
static char * bitcoin32_xpm[] = {
"32 32 612 2",
"  	c None",
". 	c #FEF164",
"+ 	c #FEF063",
"@ 	c #FEEF60",
"# 	c #FDED5F",
"$ 	c #FCEA59",
"% 	c #FBE753",
"& 	c #FAE34D",
"* 	c #F8DF47",
"= 	c #FEEB5B",
"- 	c #FEF060",
"; 	c #FFF467",
"> 	c #FBE253",
", 	c #F5DB50",
"' 	c #F6DB4F",
") 	c #EED249",
"! 	c #FAE858",
"~ 	c #F2DA4D",
"{ 	c #F2D748",
"] 	c #F3D641",
"^ 	c #F5D63C",
"/ 	c #F8DA3C",
"( 	c #F7D639",
"_ 	c #FAE54E",
": 	c #FCED5C",
"< 	c #F9D844",
"[ 	c #F8D643",
"} 	c #FFF568",
"| 	c #F4D84D",
"1 	c #F6DD50",
"2 	c #FBE759",
"3 	c #FBEC63",
"4 	c #F8E85F",
"5 	c #F7E150",
"6 	c #F5DA47",
"7 	c #F0D13E",
"8 	c #F0C937",
"9 	c #E9BB2C",
"0 	c #F3CF36",
"a 	c #F7D63C",
"b 	c #F6D134",
"c 	c #FBE550",
"d 	c #FCEA56",
"e 	c #FCEC5B",
"f 	c #F9D945",
"g 	c #F9DB4A",
"h 	c #FCED5E",
"i 	c #F9E656",
"j 	c #EBC023",
"k 	c #E5B516",
"l 	c #E3AC07",
"m 	c #E6B619",
"n 	c #EABE21",
"o 	c #F0CA2C",
"p 	c #F2D239",
"q 	c #F1CE36",
"r 	c #FADA3B",
"s 	c #F4BB21",
"t 	c #F6CD34",
"u 	c #F6D138",
"v 	c #FAE34C",
"w 	c #FBE652",
"x 	c #FCE957",
"y 	c #FDEE5F",
"z 	c #FBE854",
"A 	c #FDEA59",
"B 	c #FFF86E",
"C 	c #E7B715",
"D 	c #E5B10D",
"E 	c #E3AD09",
"F 	c #E9B917",
"G 	c #F4D131",
"H 	c #F5C52B",
"I 	c #F6CE34",
"J 	c #F6D23A",
"K 	c #F7CF38",
"L 	c #F9E047",
"M 	c #FBE34C",
"N 	c #FCE854",
"O 	c #FAE24B",
"P 	c #FDEE5D",
"Q 	c #FEEE5E",
"R 	c #F2D53E",
"S 	c #E5B10C",
"T 	c #E4AF0A",
"U 	c #ECBE1C",
"V 	c #F7D43B",
"W 	c #F7D23B",
"X 	c #F6D03A",
"Y 	c #F7CE38",
"Z 	c #F8DB40",
"` 	c #F9E148",
" .	c #FAE44F",
"..	c #F9E048",
"+.	c #FCE753",
"@.	c #FCEB59",
"#.	c #E2AA05",
"$.	c #E8B713",
"%.	c #E5B00C",
"&.	c #E6B20E",
"*.	c #E6B30F",
"=.	c #F0C924",
"-.	c #E4AE0A",
";.	c #E6B40F",
">.	c #F3C523",
",.	c #F7D239",
"'.	c #F6D039",
").	c #F7CE37",
"!.	c #F7D539",
"~.	c #F7DD42",
"{.	c #FAE24A",
"].	c #F7DC41",
"^.	c #FAE34A",
"/.	c #FBE653",
"(.	c #FDEC5A",
"_.	c #EBC324",
":.	c #ECC01B",
"<.	c #F2CE28",
"[.	c #EFC822",
"}.	c #F1CC26",
"|.	c #E4AF0B",
"1.	c #F1C622",
"2.	c #F2C521",
"3.	c #F3C321",
"4.	c #F7D23A",
"5.	c #F6D13A",
"6.	c #F7DA3D",
"7.	c #F7DD41",
"8.	c #F9E149",
"9.	c #F7D63A",
"0.	c #F8DE43",
"a.	c #FAE34B",
"b.	c #F8D132",
"c.	c #F6CC33",
"d.	c #E6AC0B",
"e.	c #E6B510",
"f.	c #E8B813",
"g.	c #E4AF0C",
"h.	c #ECC11B",
"i.	c #ECC21C",
"j.	c #EABB17",
"k.	c #ECBF1B",
"l.	c #F2C824",
"m.	c #F2C723",
"n.	c #F2C421",
"o.	c #F3C525",
"p.	c #F7D53C",
"q.	c #F6D33A",
"r.	c #F7D93C",
"s.	c #F7DC40",
"t.	c #F7D63B",
"u.	c #F6DA3B",
"v.	c #F8DC42",
"w.	c #FAE64C",
"x.	c #F9E586",
"y.	c #FFF493",
"z.	c #FECC26",
"A.	c #FBC221",
"B.	c #EFB516",
"C.	c #E6B10E",
"D.	c #E7B10F",
"E.	c #E8B210",
"F.	c #E4B10C",
"G.	c #E3AF0B",
"H.	c #E6AF0E",
"I.	c #E8AF11",
"J.	c #F3C11C",
"K.	c #F1C11F",
"L.	c #F2C622",
"M.	c #F6CE32",
"N.	c #F8D43B",
"O.	c #F8D43C",
"P.	c #F8D238",
"Q.	c #F7D83A",
"R.	c #F8DD42",
"S.	c #F5CF2F",
"T.	c #F6D738",
"U.	c #F8DB3E",
"V.	c #FBEF97",
"W.	c #FEFFB4",
"X.	c #FEEA7E",
"Y.	c #FECC23",
"Z.	c #FFCE24",
"`.	c #FBC722",
" +	c #EDA10E",
".+	c #EA9707",
"++	c #EB9B0C",
"@+	c #F8BE1D",
"#+	c #F1B918",
"$+	c #FCC521",
"%+	c #FFCA1E",
"&+	c #FFDD4E",
"*+	c #FFF89B",
"=+	c #F8D151",
"-+	c #F1CD27",
";+	c #F2C925",
">+	c #F2C523",
",+	c #F8D83C",
"'+	c #F8D639",
")+	c #F7D538",
"!+	c #F8D83B",
"~+	c #F7D93B",
"{+	c #F6D336",
"]+	c #F3D32D",
"^+	c #F6D636",
"/+	c #F7DA3E",
"(+	c #F6D535",
"_+	c #FCF5A8",
":+	c #FEDA4E",
"<+	c #FFCD26",
"[+	c #FFCC23",
"}+	c #F7BA1B",
"|+	c #E78F02",
"1+	c #E58800",
"2+	c #F2B117",
"3+	c #FFCD23",
"4+	c #FED237",
"5+	c #FEF7A0",
"6+	c #FEFFB2",
"7+	c #F7D357",
"8+	c #F2CF29",
"9+	c #F1CB26",
"0+	c #F2CA26",
"a+	c #F2CA25",
"b+	c #F6D133",
"c+	c #F8D93B",
"d+	c #F7D337",
"e+	c #F8D73B",
"f+	c #F4CF2D",
"g+	c #F3D02B",
"h+	c #F5D434",
"i+	c #F8DB3D",
"j+	c #E8B812",
"k+	c #FCE276",
"l+	c #FECF2F",
"m+	c #FFD226",
"n+	c #E58A01",
"o+	c #F8BC1B",
"p+	c #FFCF24",
"q+	c #FED032",
"r+	c #FEF698",
"s+	c #F6CF4B",
"t+	c #F5D432",
"u+	c #F2CD27",
"v+	c #F4CE2D",
"w+	c #F7DA3C",
"x+	c #F8D93C",
"y+	c #F7D336",
"z+	c #F8D63A",
"A+	c #F3C927",
"B+	c #F5D230",
"C+	c #F0CB2A",
"D+	c #F8D14E",
"E+	c #FFCA1D",
"F+	c #F6B91A",
"G+	c #FCC721",
"H+	c #FFCA1F",
"I+	c #FFF18B",
"J+	c #F3C429",
"K+	c #F5D839",
"L+	c #F5D535",
"M+	c #F5D332",
"N+	c #F4D22F",
"O+	c #F8DD41",
"P+	c #F7D339",
"Q+	c #F9DB3F",
"R+	c #F1C420",
"S+	c #F2CC27",
"T+	c #F4D22E",
"U+	c #F8C11E",
"V+	c #FFCC22",
"W+	c #FFD023",
"X+	c #E3B01E",
"Y+	c #FFCB23",
"Z+	c #FFD426",
"`+	c #FBD958",
" @	c #F0C01E",
".@	c #F0C92A",
"+@	c #EFC828",
"@@	c #EFC827",
"#@	c #EEC624",
"$@	c #F3CB2C",
"%@	c #FAE54D",
"&@	c #F8DF46",
"*@	c #F7D53A",
"=@	c #F1C823",
"-@	c #F2CB26",
";@	c #EBBE18",
">@	c #E5AF0D",
",@	c #FFCD25",
"'@	c #FCE268",
")@	c #FFE554",
"!@	c #FFE362",
"~@	c #DBA112",
"{@	c #FFD124",
"]@	c #FFD024",
"^@	c #B8770A",
"/@	c #FFE046",
"(@	c #FFD234",
"_@	c #FFCB1E",
":@	c #FBC31F",
"<@	c #F0CB2C",
"[@	c #F8DC41",
"}@	c #FAE04A",
"|@	c #FAE14C",
"1@	c #F8D53B",
"2@	c #F8D539",
"3@	c #F2C722",
"4@	c #EDB715",
"5@	c #FFCC21",
"6@	c #FDE878",
"7@	c #FBEB74",
"8@	c #B09767",
"9@	c #A67706",
"0@	c #FFE264",
"a@	c #FFC919",
"b@	c #FDEB7E",
"c@	c #E9D468",
"d@	c #DBBD3E",
"e@	c #FCE36C",
"f@	c #FECB23",
"g@	c #E9B010",
"h@	c #E3AE09",
"i@	c #F4D53A",
"j@	c #FAE249",
"k@	c #F9E046",
"l@	c #FBE350",
"m@	c #FAE550",
"n@	c #F8DA3D",
"o@	c #F3C421",
"p@	c #E8B612",
"q@	c #EBA90F",
"r@	c #FFCD19",
"s@	c #FFF176",
"t@	c #7D4F16",
"u@	c #764612",
"v@	c #561F00",
"w@	c #FFF05B",
"x@	c #FFC715",
"y@	c #FFDB52",
"z@	c #C6A53A",
"A@	c #CBBA7E",
"B@	c #5A2200",
"C@	c #EDD350",
"D@	c #FFD338",
"E@	c #FFD025",
"F@	c #E8AD0D",
"G@	c #F7DE48",
"H@	c #FCE653",
"I@	c #F9DC46",
"J@	c #FDEF5D",
"K@	c #FCEB58",
"L@	c #FCE756",
"M@	c #F6D43A",
"N@	c #F8D63C",
"O@	c #EFBF1D",
"P@	c #EDC31E",
"Q@	c #E9BA15",
"R@	c #E79405",
"S@	c #F8BD18",
"T@	c #FDEA76",
"U@	c #8D5B03",
"V@	c #683400",
"W@	c #7F4A00",
"X@	c #FFF486",
"Y@	c #FEFCAB",
"Z@	c #FFFFBB",
"`@	c #FFEA7F",
" #	c #9E6E08",
".#	c #6B3600",
"+#	c #683300",
"@#	c #D5B335",
"##	c #FFD94A",
"$#	c #FBC92F",
"%#	c #F7D76D",
"&#	c #F8D65E",
"*#	c #FDEE5E",
"=#	c #FDED5D",
"-#	c #FCE857",
";#	c #F6CE38",
">#	c #F7D43C",
",#	c #EDBE1E",
"'#	c #EEC620",
")#	c #E5B20D",
"!#	c #F7BF1D",
"~#	c #EFA611",
"{#	c #FFD332",
"]#	c #FFE967",
"^#	c #D7B947",
"/#	c #FFF78D",
"(#	c #EFE5A0",
"_#	c #B38155",
":#	c #FFFFBE",
"<#	c #F2DE6F",
"[#	c #8D5A00",
"}#	c #A06F03",
"|#	c #FFF584",
"1#	c #FFE465",
"2#	c #FDFBB2",
"3#	c #FDFAAF",
"4#	c #FBF199",
"5#	c #FAE891",
"6#	c #FDEA57",
"7#	c #FFF061",
"8#	c #FFEF60",
"9#	c #FCE95C",
"0#	c #F5CC32",
"a#	c #E6B410",
"b#	c #F2BC19",
"c#	c #FFCB20",
"d#	c #FFC818",
"e#	c #FED43D",
"f#	c #FEF394",
"g#	c #FEFFB1",
"h#	c #F8E79F",
"i#	c #F4D994",
"j#	c #F5DA94",
"k#	c #F7E19C",
"l#	c #FFFFB7",
"m#	c #FFEA79",
"n#	c #FEE261",
"o#	c #F7B70E",
"p#	c #F7E07F",
"q#	c #F1A700",
"r#	c #FBED90",
"s#	c #FCF19F",
"t#	c #F9DF4F",
"u#	c #FFF468",
"v#	c #FBE757",
"w#	c #FDF164",
"x#	c #FEF165",
"y#	c #F4C625",
"z#	c #F3CA26",
"A#	c #F4CB27",
"B#	c #F1C620",
"C#	c #FBE37A",
"D#	c #FBF69F",
"E#	c #FDFEB3",
"F#	c #FEFEB0",
"G#	c #F9EBA0",
"H#	c #ECC362",
"I#	c #EEC76B",
"J#	c #FAEDA6",
"K#	c #FEFFB9",
"L#	c #FBDF66",
"M#	c #FFC91C",
"N#	c #FBDB58",
"O#	c #FEFBAB",
"P#	c #F5CA47",
"Q#	c #FEFBB4",
"R#	c #F8E07C",
"S#	c #FADE4E",
"T#	c #FCE859",
"U#	c #FFF569",
"V#	c #FFF266",
"W#	c #FEF064",
"X#	c #F7CE36",
"Y#	c #F5CD31",
"Z#	c #F2C522",
"`#	c #F3C925",
" $	c #F1C522",
".$	c #FAE687",
"+$	c #FCFCB4",
"@$	c #FCF8A9",
"#$	c #E3A931",
"$$	c #E3AA32",
"%$	c #FCF9AA",
"&$	c #FDFCAF",
"*$	c #FEFDB2",
"=$	c #F9F7AA",
"-$	c #FDFCAD",
";$	c #FEFFB7",
">$	c #F5CA38",
",$	c #FEF161",
"'$	c #FFF263",
")$	c #FBE655",
"!$	c #FDEC5E",
"~$	c #F7CF39",
"{$	c #F6D23B",
"]$	c #F3C626",
"^$	c #F2CA24",
"/$	c #F2CA1F",
"($	c #F2BE28",
"_$	c #F8DC72",
":$	c #FCF5A1",
"<$	c #FFFFC7",
"[$	c #F3DF88",
"}$	c #F6E793",
"|$	c #FFFFB8",
"1$	c #FFFFBA",
"2$	c #FFFFC3",
"3$	c #F9E787",
"4$	c #FCFCB0",
"5$	c #FFFFBC",
"6$	c #F5CB44",
"7$	c #FAE34F",
"8$	c #FEF162",
"9$	c #FFEE5E",
"0$	c #F2C422",
"a$	c #F1C324",
"b$	c #F9E27F",
"c$	c #F7E081",
"d$	c #FBF8AE",
"e$	c #F5C94A",
"f$	c #F2B520",
"g$	c #F2B722",
"h$	c #F3BB2B",
"i$	c #F3BE30",
"j$	c #F2B824",
"k$	c #F0A600",
"l$	c #FAE685",
"m$	c #F5CF52",
"n$	c #FBE751",
"o$	c #FBE34F",
"p$	c #FCEC5C",
"q$	c #FBE453",
"r$	c #FAE98A",
"s$	c #FCF9A9",
"t$	c #FBFAAA",
"u$	c #FBF9AA",
"v$	c #FFFFB9",
"w$	c #FBF8A8",
"x$	c #F8DB6C",
"y$	c #F1B31A",
"z$	c #F1A903",
"A$	c #F1B51E",
"B$	c #FBED94",
"C$	c #FEFFBB",
"D$	c #FAD54E",
"E$	c #FAC723",
"F$	c #F8D33A",
"G$	c #F9DF47",
"H$	c #FBE752",
"I$	c #FCE956",
"J$	c #FBEA56",
"K$	c #FCE754",
"L$	c #FBF08C",
"M$	c #FCFBB1",
"N$	c #FAF6A9",
"O$	c #F9E98E",
"P$	c #FFFFB3",
"Q$	c #FBF7A8",
"R$	c #FDFDAE",
"S$	c #FFFFBF",
"T$	c #FEFFB0",
"U$	c #FCD13C",
"V$	c #FACC2B",
"W$	c #FBE651",
"X$	c #F7D437",
"Y$	c #F6D74C",
"Z$	c #F2C033",
"`$	c #FCF4A1",
" %	c #FCFAA8",
".%	c #FFFFB5",
"+%	c #FBF6A7",
"@%	c #F6D25E",
"#%	c #F8BE1C",
"$%	c #FDCE26",
"%%	c #F9D93D",
"&%	c #FBE44C",
"*%	c #FBE24B",
"=%	c #FBE34B",
"-%	c #F4C027",
";%	c #F4C228",
">%	c #F7D334",
",%	c #F9DC50",
"'%	c #FBEC81",
")%	c #FBF598",
"!%	c #FFFFBD",
"~%	c #FEFDAA",
"{%	c #F3C224",
"]%	c #F6D53A",
"^%	c #F8DD43",
"/%	c #F8E047",
"(%	c #F9DF46",
"_%	c #F6C830",
":%	c #F5C931",
"<%	c #F3CB35",
"[%	c #EFC22F",
"}%	c #F3CE37",
"|%	c #F9D735",
"1%	c #F7D12A",
"2%	c #F8D633",
"3%	c #F7D733",
"4%	c #F6D52D",
"5%	c #F7D836",
"6%	c #F8DC3F",
"7%	c #F7D83D",
"8%	c #F6CE33",
"9%	c #F1AD13",
"0%	c #F8DE41",
"a%	c #F7D038",
"b%	c #F5CF37",
"c%	c #EDC130",
"d%	c #F1C736",
"e%	c #ECC739",
"f%	c #F1D444",
"g%	c #ECCC3B",
"h%	c #F2D23E",
"i%	c #F4D33C",
"j%	c #EDC02F",
"k%	c #EFC62F",
"l%	c #F8DC3E",
"m%	c #F6D436",
"n%	c #F8D53D",
"o%	c #F0CB3A",
"p%	c #F5D33E",
"q%	c #F1D344",
"r%	c #F3D543",
"s%	c #F0CD38",
"t%	c #ECC938",
"u%	c #F1CD39",
"                        . + @ # $ % & *                         ",
"                  = - ; > , ' ) ! ~ { ] ^ / (                   ",
"              _ : < [ } | 1 2 3 4 5 6 7 8 9 0 a b               ",
"            c d e f g h i j k l l m n o p q r s t u             ",
"          v w x y z A B C D D D D D D D E F G H I J K           ",
"        L M w N O P Q R S D D D D D D D D D T U V W X Y         ",
"      Z ` M  ...+.@.P #.$.%.D D D D &.*.=.-.D ;.>.,.J '.).      ",
"    !.~.L {.].^./.(._.:.<.;.D D D D %.[.}.[.|.1.2.3.4.W 5.t     ",
"    6.7.8.9.0.a.b.c.d.e.f.g.D D D D D h.i.j.k.l.m.n.o.p.q.4.    ",
"  ( r.s.t.u.v.w.x.y.z.A.B.C.D.E.&.F.D G.H.I.J.K.l.m.L.M.N.O.P.  ",
"  Q.r.R.S.T.Z U.V.W.X.Y.Z.`. +.+++@+#+$+%+&+*+=+-+;+l.>+,+'+)+  ",
"  !+~+{+]+^+/+(+_+:+<+[+[+}+|+1+2+3+3+[+4+5+6+7+8+9+0+a+b+!+c+  ",
"d+e+~+f+g+h+i+j+k+l+[+[+[+m+n+o+p+[+[+[+[+q+r+s+t+g+<.u+v+w+x+t.",
"y+z+w+A+<.B+C+T D+E+[+[+[+F+G+[+[+[+[+[+[+H+I+J+K+L+M+N+f+0.O+/+",
"P+( Q+R+S+T+D F.U+[+V+E+W+X+Y+[+[+Z+[+[+[+V+`+ @.@+@@@#@$@%@` &@",
",.( *@=@-@;@D >@,@E+'@)@!@~@{@[+]@^@/@(@_@[+:@C.D D E <@[@}@& |@",
"u 1@2@3@=@|.D 4@5@6@7@8@9@0@[+[+a@b@c@d@e@%+f@g@D h@i@j@k@l@+.m@",
"u V n@o@*.p@D q@r@s@t@u@v@w@x@x@y@z@A@B@C@D@E@F@T G@H@w I@J@K@L@",
"K M@N@O@P@=.Q@R@S@T@U@V@W@X@Y@Z@`@ #.#+#@###$#%#&#{.@.K@l@*#=#-#",
";#4.>#,#'#8+)#!#~#{#]#^#/#6+(#_#:#<#[#}#|#1#2#3#4#5#6#Q L@7#8#9#",
"  W q.0#e.a#)#b#c#d#e#f#g#h#i#j#k#l#m#n#V+o#p#q#r#s#t#u#v#w#x#  ",
"  '.W a y#z#A#B#C#D#E#F#g#G#H#I#J#g#K#L#M#N#O#P#Q#R#S#T#U#V#W#  ",
"  X#5.4.Y#Z#m.`# $.$+$6+g#@$#$$$%$g#&$*$=$-$g#;$>$,$'$)$+ + !$  ",
"    ~${$p.]$Z#m.^$/$($_$:$<$[$}$|$1$2$3$4$g#5$6$P @.7$8$9$Q     ",
"    c.X W q.0$a$b$c$d$e$q#f$g$h$i$j$k$l$g#5$m$n$w o$$ p$p$q$    ",
"      ).X W d+r$s$t$u$v$w$5$x$y$z$A$B$g#C$D$E$F$G$H$I$J$K$      ",
"        Y 5.W b L$M$N$O$P$Q$R$S$:#:#T$K#U$f@V+V$n$W$/.w         ",
"          K 5.W X$Y$Z$`$ %.%+%g#g#g#g#@%#%$%%%&%*%=%=%          ",
"            ).5.-%;%>%,%'%)%!%S$:#5$~%{%]%^%k@&@/%(%            ",
"              I _%:%<%[%}%|%1%2%3%4%5%6%7%8%9%0%6.              ",
"                  a%b%c%d%e%f%g%h%i%i%j%k%l%m%                  ",
"                        n%o%p%q%r%s%t%u%                        "};
