/* XPM */
static char * bitcoin16_xpm[] = {
"16 16 196 2",
"  	c None",
". 	c #FFF365",
"+ 	c #FBE659",
"@ 	c #F7E054",
"# 	c #F9E555",
"$ 	c #F5DB47",
"% 	c #F8DB3E",
"& 	c #FBE751",
"* 	c #FAE250",
"= 	c #FBE454",
"- 	c #F4D847",
"; 	c #F0CE38",
"> 	c #EECB34",
", 	c #F0CE36",
"' 	c #EFC836",
") 	c #F7CF34",
"! 	c #F6D036",
"~ 	c #FAE149",
"{ 	c #FCE855",
"] 	c #FCEA57",
"^ 	c #FDEF61",
"/ 	c #E3AD07",
"( 	c #E5B10D",
"_ 	c #E5B00C",
": 	c #E4AF0A",
"< 	c #EEC120",
"[ 	c #F7D33B",
"} 	c #F7CF38",
"| 	c #F7DA3F",
"1 	c #FAE24A",
"2 	c #F9E047",
"3 	c #FDEC5B",
"4 	c #ECC425",
"5 	c #EABC18",
"6 	c #E8B712",
"7 	c #EEC620",
"8 	c #E7B410",
"9 	c #F4C726",
"0 	c #F7D33C",
"a 	c #F6CE37",
"b 	c #F7DB3E",
"c 	c #F7D93E",
"d 	c #F9E247",
"e 	c #FADD61",
"f 	c #F1B810",
"g 	c #E6B00E",
"h 	c #E6B30F",
"i 	c #E4B20C",
"j 	c #E5B30F",
"k 	c #E7B311",
"l 	c #F1C11A",
"m 	c #F2C723",
"n 	c #F5CB2D",
"o 	c #F7D639",
"p 	c #F7D93D",
"q 	c #F5D331",
"r 	c #F7D837",
"s 	c #FDF49E",
"t 	c #FFD43A",
"u 	c #FECA23",
"v 	c #E78D02",
"w 	c #F6B61A",
"x 	c #FCC620",
"y 	c #FFDF55",
"z 	c #FCEB8A",
"A 	c #F1CC23",
"B 	c #F8D73A",
"C 	c #F7D638",
"D 	c #F8D539",
"E 	c #F5D333",
"F 	c #F4D12D",
"G 	c #ECC11B",
"H 	c #FED548",
"I 	c #FFCC23",
"J 	c #FECC23",
"K 	c #F5B518",
"L 	c #FFCE24",
"M 	c #FFC81A",
"N 	c #FAE16E",
"O 	c #F5D634",
"P 	c #F6D536",
"Q 	c #F8DA3D",
"R 	c #F7D439",
"S 	c #F4CF2F",
"T 	c #F2CC27",
"U 	c #E2AC09",
"V 	c #FFC81B",
"W 	c #FFDA3F",
"X 	c #EEC02E",
"Y 	c #FFD024",
"Z 	c #E9B319",
"` 	c #FFD732",
" .	c #FFCB1D",
"..	c #F2C228",
"+.	c #EABC1B",
"@.	c #EABE1B",
"#.	c #F8DC42",
"$.	c #F9E14A",
"%.	c #F7D33A",
"&.	c #F6D02F",
"*.	c #E8B612",
"=.	c #E8AF0F",
"-.	c #FFE551",
";.	c #A28144",
">.	c #BA9730",
",.	c #FFC30B",
"'.	c #F4D34D",
").	c #B4964B",
"!.	c #FFDD4C",
"~.	c #F4BD16",
"{.	c #E7B815",
"].	c #FBE44F",
"^.	c #FAE34E",
"/.	c #FCE854",
"(.	c #F6D139",
"_.	c #F2C92C",
":.	c #F1CD27",
"<.	c #EAAE0F",
"[.	c #FCCA37",
"}.	c #AC8426",
"|.	c #E3D273",
"1.	c #E2D59F",
"2.	c #EAD671",
"3.	c #6B3200",
"4.	c #FBE464",
"5.	c #FCEB8D",
"6.	c #FAE476",
"7.	c #FDED59",
"8.	c #FDEA59",
"9.	c #FDEC5C",
"0.	c #F6D038",
"a.	c #F7D43B",
"b.	c #EBBB17",
"c.	c #EEBE18",
"d.	c #FFDE59",
"e.	c #FFF28F",
"f.	c #FBF5AB",
"g.	c #F3D17F",
"h.	c #FBF4AE",
"i.	c #FFF487",
"j.	c #FCC010",
"k.	c #F5CC4F",
"l.	c #FCF5AA",
"m.	c #FBE553",
"n.	c #FDF063",
"o.	c #FEEF62",
"p.	c #F7D13A",
"q.	c #F4CB2D",
"r.	c #F2C724",
"s.	c #F3CC2F",
"t.	c #F9E37D",
"u.	c #FFFFC3",
"v.	c #E9C057",
"w.	c #FFFFC1",
"x.	c #FDFBB2",
"y.	c #FCFEB5",
"z.	c #FDF5A5",
"A.	c #FBE44C",
"B.	c #FCEB5A",
"C.	c #FEEF61",
"D.	c #F5CF3F",
"E.	c #FAF09E",
"F.	c #FBF3A0",
"G.	c #F6D056",
"H.	c #F3B925",
"I.	c #F0AA06",
"J.	c #F8DB6C",
"K.	c #FEFAAB",
"L.	c #F8D138",
"M.	c #FAE34D",
"N.	c #FCEB59",
"O.	c #FCE856",
"P.	c #F6D034",
"Q.	c #FAE975",
"R.	c #F8E281",
"S.	c #FEFDB1",
"T.	c #FEFFB7",
"U.	c #FCF7A7",
"V.	c #FCC419",
"W.	c #FBD535",
"X.	c #FBE650",
"Y.	c #F7D039",
"Z.	c #F5C229",
"`.	c #F4CF36",
" +	c #F9E260",
".+	c #FCEA77",
"++	c #FBEB77",
"@+	c #F8DD4E",
"#+	c #F7D93F",
"$+	c #F6D136",
"%+	c #F8DE44",
"&+	c #F1CA35",
"*+	c #F0C939",
"=+	c #F0D242",
"-+	c #F2D23E",
";+	c #F4D439",
"          . + @ # $ %           ",
"      & * = - ; > , ' ) !       ",
"    ~ { ] ^ / ( ( _ : < [ }     ",
"  | 1 2 3 4 5 ( ( 6 7 8 9 0 a   ",
"  b c d e f g h i j k l m n [   ",
"o p q r s t u v w x y z A m B C ",
"D E F G H I J K L I M N O F P Q ",
"R S T U V W X Y Z `  ...+.@.#.$.",
"%.&.*.=.-.;.>.,.'.).!.~.{.].^./.",
"(._.:.<.[.}.|.1.2.3.4.5.6.7.8.9.",
"0.a.b.c.d.e.f.g.h.i.j.k.l.m.n.o.",
"  p.q.r.s.t.u.v.w.x.y.z.A.B.C.  ",
"  a 0 D.E.F.G.H.I.J.K.L.M.N.O.  ",
"    } P.Q.R.S.T.u.U.V.W.X.].    ",
"      Y.Z.`. +.+++@+#+$+%+      ",
"          &+*+=+-+' ;+          "};
